#define Nr16kHz_width 35
#define Nr16kHz_height 9
static unsigned char Nr16kHz_bits[] = {
 0xfe,0xff,0xff,0xff,0x03,0xff,0xff,0xff,0xff,0x07,0x7f,0xc7,0xd6,0xe2,0x07,
 0x3f,0xfb,0xda,0xee,0x07,0x7f,0xe3,0x1c,0xf6,0x07,0x7f,0xdb,0xda,0xfa,0x07,
 0x3f,0xe6,0xd6,0xe2,0x07,0xff,0xff,0xff,0xff,0x07,0xfe,0xff,0xff,0xff,0x03
 };
