#define Nr8kHz_width 35
#define Nr8kHz_height 9
static char Nr8kHz_bits[] = {
 0xfe,0xff,0xff,0xff,0x03,0xff,0xff,0xff,0xff,0x07,0xff,0xb9,0xb5,0xf8,0x07,
 0xff,0xb6,0xb6,0xfb,0x07,0xff,0x39,0x87,0xfd,0x07,0xff,0xb6,0xb6,0xfe,0x07,
 0xff,0xb9,0xb5,0xf8,0x07,0xff,0xff,0xff,0xff,0x07,0xfe,0xff,0xff,0xff,0x03
 };
