#define NrAdjust_width 81
#define NrAdjust_height 14
static unsigned char NrAdjust_bits[] = {
 0x55,0x55,0x55,0x55,0x55,0x55,0x55,0x55,0x55,0x55,0x01,0x01,0x00,0x10,0x00,
 0x00,0x01,0x00,0x10,0x00,0x00,0x01,0x01,0x00,0x10,0x00,0x00,0x01,0x00,0x10,
 0x00,0x00,0x01,0x01,0x00,0x10,0x00,0x00,0x01,0x00,0x10,0x00,0x00,0x01,0x00,
 0x00,0x00,0x00,0x00,0x00,0x00,0x00,0x00,0x00,0x00,0x00,0xe2,0x0c,0x20,0x90,
 0x00,0x08,0x00,0xc4,0x19,0x00,0x00,0x13,0x4d,0x50,0x10,0x00,0x08,0x10,0x26,
 0x9a,0x00,0x80,0x12,0x21,0x88,0xdc,0x92,0x3f,0x10,0x25,0x42,0x00,0x3e,0x12,
 0x11,0xf8,0x92,0x52,0x08,0x7c,0x24,0x22,0x00,0x00,0x12,0x09,0x88,0x92,0x92,
 0x09,0x10,0x24,0x12,0x00,0x00,0x12,0x65,0x88,0x92,0x12,0x4a,0x10,0x24,0xca,
 0x00,0x00,0xe7,0x60,0x88,0x9c,0xcc,0x31,0x00,0xce,0xc1,0x00,0x00,0x00,0x00,
 0x00,0x80,0x00,0x00,0x00,0x00,0x00,0x00,0x00,0x00,0x00,0x00,0x60,0x00,0x00,
 0x00,0x00,0x00,0x00};
