#define NrAnalyzer_width 81
#define NrAnalyzer_height 13
static unsigned char NrAnalyzer_bits[] = {
 0x55,0x55,0x55,0x55,0x55,0x55,0x55,0x55,0x55,0x55,0x01,0x01,0x04,0x10,0x40,
 0x00,0x01,0x04,0x10,0x40,0x00,0x01,0x01,0x04,0x10,0x40,0x00,0x01,0x04,0x10,
 0x40,0x00,0x01,0x00,0x00,0x00,0x00,0x00,0x00,0x00,0x00,0x00,0x00,0x00,0x02,
 0x00,0x08,0x00,0x60,0x00,0x00,0x00,0x80,0x90,0x00,0x02,0x00,0x14,0x00,0x40,
 0x00,0x00,0x00,0x80,0x10,0x00,0x82,0x07,0xa2,0xcc,0x47,0x44,0x3f,0x4f,0x87,
 0xd0,0x00,0x42,0x08,0xbe,0x13,0x48,0x44,0x90,0xd0,0x80,0x9f,0x00,0x42,0x08,
 0xa2,0x90,0x4f,0x44,0x88,0x5f,0x80,0x90,0x00,0x42,0x08,0xa2,0x50,0x48,0x44,
 0x84,0x40,0x80,0x90,0x00,0x9e,0x07,0xa2,0x90,0xef,0x78,0x3f,0x5f,0x80,0xd0,
 0x01,0x00,0x00,0x00,0x00,0x00,0x40,0x00,0x00,0x00,0x00,0x00,0x00,0x00,0x00,
 0x00,0x00,0x38,0x00,0x00,0x00,0x00,0x00};
