#define NrBuffer_width 81
#define NrBuffer_height 14
static char NrBuffer_bits[] = {
 0x55,0x55,0x55,0x55,0x55,0x55,0x55,0x55,0x55,0x55,0x01,0x01,0x00,0x10,0x00,
 0x00,0x01,0x00,0x10,0x00,0x00,0x01,0x01,0x00,0x10,0x00,0x00,0x01,0x00,0x10,
 0x00,0x00,0x01,0x01,0x00,0x10,0x00,0x00,0x01,0x00,0x10,0x00,0x00,0x01,0x00,
 0x00,0x00,0x00,0x00,0x00,0x00,0x00,0x00,0x00,0x00,0x1c,0xc7,0x19,0x70,0x00,
 0x1b,0x00,0x1c,0xc7,0x19,0x00,0xa2,0x28,0x9a,0x90,0x80,0x04,0x00,0xa2,0x28,
 0x9a,0x00,0xa2,0x28,0x42,0x90,0xd2,0xcf,0x34,0xa2,0x28,0x42,0x00,0xa2,0x28,
 0x22,0x70,0x92,0x24,0x0d,0x90,0x28,0x22,0x00,0xa2,0x28,0x12,0x90,0x92,0xe4,
 0x05,0x88,0x28,0x12,0x00,0xa2,0x28,0xca,0x90,0x92,0x24,0x04,0x84,0x28,0xca,
 0x00,0x1c,0xc7,0xc1,0x70,0x8c,0xc4,0x05,0x3e,0xc7,0xc1,0x00,0x00,0x00,0x00,
 0x00,0x00,0x00,0x00,0x00,0x00,0x00,0x00,0x00,0x00,0x00,0x00,0x00,0x00,0x00,
 0x00,0x00,0x00,0x00};
