#define NrCharge_width 35
#define NrCharge_height 9
static char NrCharge_bits[] = {
 0xfe,0xff,0xff,0xff,0x03,0xff,0xff,0xff,0xff,0x07,0xcf,0x76,0xc7,0x11,0x06,
 0xb7,0xb6,0xb6,0xde,0x07,0xf7,0x10,0xc4,0x16,0x07,0xb7,0xd6,0xb5,0xd6,0x07,
 0xcf,0xd6,0xb5,0x11,0x06,0xff,0xff,0xff,0xff,0x07,0xfe,0xff,0xff,0xff,0x03
 };
