#define NrMem_width 35
#define NrMem_height 9
static char NrMem_bits[] = {
 0xfe,0xff,0xff,0xff,0x03,0xff,0xff,0xff,0xff,0x07,0xff,0x5d,0xd0,0xfd,0x07,
 0xff,0x49,0x9f,0xfc,0x07,0xff,0x55,0x58,0xfd,0x07,0xff,0x5d,0xdf,0xfd,0x07,
 0xff,0x5d,0xd0,0xfd,0x07,0xff,0xff,0xff,0xff,0x07,0xfe,0xff,0xff,0xff,0x03
 };
