#define NrMiss_width 35
#define NrMiss_height 9
static char NrMiss_bits[] = {
 0xfe,0xff,0xff,0xff,0x03,0xff,0xff,0xff,0xff,0x07,0x1f,0x62,0x9c,0xf1,0x07,
 0xdf,0x5b,0x6b,0xed,0x07,0x1f,0x63,0x6c,0xf1,0x07,0xdf,0x5b,0x6b,0xed,0x07,
 0x1f,0x5a,0x9b,0xed,0x07,0xff,0xff,0xff,0xff,0x07,0xfe,0xff,0xff,0xff,0x03
 };
