#define NrMute_width 35
#define NrMute_height 9
static char NrMute_bits[] = {
 0xfe,0xff,0xff,0xff,0x03,0xff,0xff,0xff,0xff,0x07,0xbf,0xeb,0x82,0xe0,0x07,
 0x3f,0xe9,0xee,0xfe,0x07,0xbf,0xea,0xee,0xf0,0x07,0xbf,0xeb,0xee,0xfe,0x07,
 0xbf,0x1b,0xef,0xe0,0x07,0xff,0xff,0xff,0xff,0x07,0xfe,0xff,0xff,0xff,0x03
 };
