#define NrP1_width 22
#define NrP1_height 11
static char NrP1_bits[] = {
 0xfe,0xff,0x1f,0xff,0xff,0x3f,0x1f,0xbe,0x3f,0xdf,0x9d,0x3f,0xdf,0xad,0x3f,
 0x1f,0xbe,0x3f,0xdf,0xbf,0x3f,0xdf,0xbf,0x3f,0xdf,0x0f,0x3e,0xff,0xff,0x3f,
 0xfe,0xff,0x1f};
