#define NrP2_width 22
#define NrP2_height 11
static unsigned char NrP2_bits[] = {
 0xfe,0xff,0x1f,0xff,0xff,0x3f,0x1f,0x1e,0x3f,0xdf,0xed,0x3e,0xdf,0xfd,0x3e,
 0x1f,0x7e,0x3f,0xdf,0xbf,0x3f,0xdf,0xdf,0x3f,0xdf,0x0f,0x3e,0xff,0xff,0x3f,
 0xfe,0xff,0x1f};
