#define NrP3_width 22
#define NrP3_height 11
static char NrP3_bits[] = {
 0xfe,0xff,0x1f,0xff,0xff,0x3f,0x1f,0x0e,0x3e,0xdf,0x7d,0x3f,0xdf,0xbd,0x3f,
 0x1f,0x1e,0x3f,0xdf,0xff,0x3e,0xdf,0xff,0x3e,0xdf,0x0f,0x3f,0xff,0xff,0x3f,
 0xfe,0xff,0x1f};
