#define NrP4_width 22
#define NrP4_height 11
static char NrP4_bits[] = {
 0xfe,0xff,0x1f,0xff,0xff,0x3f,0x1f,0x7e,0x3f,0xdf,0x3d,0x3f,0xdf,0x5d,0x3f,
 0x1f,0x6e,0x3f,0xdf,0x0f,0x3e,0xdf,0x7f,0x3f,0xdf,0x7f,0x3f,0xff,0xff,0x3f,
 0xfe,0xff,0x1f};
