#define NrP6_width 22
#define NrP6_height 11
static char NrP6_bits[] = {
 0xfe,0xff,0x1f,0xff,0xff,0x3f,0x1f,0x1e,0x3f,0xdf,0xed,0x3e,0xdf,0xed,0x3f,
 0x1f,0x0e,0x3f,0xdf,0xef,0x3e,0xdf,0xef,0x3e,0xdf,0x1f,0x3f,0xff,0xff,0x3f,
 0xfe,0xff,0x1f};
