#define NrP7_width 22
#define NrP7_height 11
static char NrP7_bits[] = {
 0xfe,0xff,0x1f,0xff,0xff,0x3f,0x1f,0x0e,0x3e,0xdf,0xfd,0x3e,0xdf,0x7d,0x3f,
 0x1f,0xbe,0x3f,0xdf,0xdf,0x3f,0xdf,0xdf,0x3f,0xdf,0xdf,0x3f,0xff,0xff,0x3f,
 0xfe,0xff,0x1f};
