#define NrP8_width 22
#define NrP8_height 11
static char NrP8_bits[] = {
 0xfe,0xff,0x1f,0xff,0xff,0x3f,0x1f,0x1e,0x3f,0xdf,0xed,0x3e,0xdf,0xed,0x3e,
 0x1f,0x1e,0x3f,0xdf,0xef,0x3e,0xdf,0xef,0x3e,0xdf,0x1f,0x3f,0xff,0xff,0x3f,
 0xfe,0xff,0x1f};
