#define NrRecord_width 33
#define NrRecord_height 9
static unsigned char NrRecord_bits[] = {
 0xfe,0xff,0xff,0xff,0x00,0xff,0xff,0xff,0xff,0x01,0x63,0x98,0x33,0xc6,0x01,
 0x5b,0x6f,0xad,0xb5,0x01,0x63,0xec,0x2d,0xb6,0x01,0x6b,0x6f,0xad,0xb6,0x01,
 0x5b,0x98,0xb3,0xc5,0x01,0xff,0xff,0xff,0xff,0x01,0xfe,0xff,0xff,0xff,0x00
 };
