#define NrVolume_width 81
#define NrVolume_height 14
static unsigned char NrVolume_bits[] = {
 0x55,0x55,0x55,0x55,0x55,0x55,0x55,0x55,0x55,0x55,0x01,0x01,0x00,0x10,0x00,
 0x00,0x01,0x00,0x10,0x00,0x00,0x01,0x01,0x00,0x10,0x00,0x00,0x01,0x00,0x10,
 0x00,0x00,0x01,0x01,0x00,0x10,0x00,0x00,0x01,0x00,0x10,0x00,0x00,0x01,0x00,
 0x00,0x00,0x00,0x00,0x00,0x00,0x00,0x00,0x00,0x00,0x1c,0x00,0x00,0x44,0x60,
 0x00,0x00,0x00,0x00,0x71,0x00,0x22,0x00,0x00,0x44,0x40,0x00,0x00,0x00,0x80,
 0x89,0x00,0x22,0x00,0x00,0x44,0x46,0x92,0x62,0x00,0x40,0x89,0x00,0x22,0x00,
 0x00,0x44,0x49,0x52,0x95,0x00,0x00,0x89,0x00,0x22,0x00,0x00,0x44,0x49,0x52,
 0xf5,0x00,0x00,0x89,0x00,0x22,0x00,0x00,0x28,0x49,0x52,0x15,0x00,0x00,0x89,
 0x00,0x1c,0x00,0x00,0x10,0xe6,0x4c,0xe5,0x00,0x80,0x73,0x00,0x00,0x00,0x00,
 0x00,0x00,0x00,0x00,0x00,0x00,0x00,0x00,0x00,0x00,0x00,0x00,0x00,0x00,0x00,
 0x00,0x00,0x00,0x00};
