/* XPM */
static char * xtest_xpm[] = {
"200 40 51 1",
" 	c None",
".	c #FFE0E0",
"+	c #FFCCCC",
"@	c #FFEAEA",
"#	c #E0E0E0",
"$	c #CCCCCC",
"%	c #EAEAEA",
"&	c #FF6666",
"*	c #FF0000",
"=	c #FF7070",
"-	c #FFD6D6",
";	c #FF3333",
">	c #5B5B5B",
",	c #333333",
"'	c #ADADAD",
")	c #474747",
"!	c #D6D6D6",
"~	c #C1C1C1",
"{	c #141414",
"]	c #000000",
"^	c #1E1E1E",
"/	c #FF1414",
"(	c #282828",
"_	c #0A0A0A",
":	c #8E8E8E",
"<	c #7A7A7A",
"[	c #FF8484",
"}	c #FF7A7A",
"|	c #515151",
"1	c #FF1E1E",
"2	c #848484",
"3	c #666666",
"4	c #A3A3A3",
"5	c #FFFFFF",
"6	c #707070",
"7	c #999999",
"8	c #B7B7B7",
"9	c #FF8E8E",
"0	c #F4F4F4",
"a	c #FF0A0A",
"b	c #3D3D3D",
"c	c #FF5B5B",
"d	c #FF5151",
"e	c #FF9999",
"f	c #FF4747",
"g	c #FFC1C1",
"h	c #FF3D3D",
"i	c #FFB7B7",
"j	c #FFA3A3",
"k	c #FF2828",
"l	c #FFADAD",
"                                                                                                                                                                                                        ",
"                                                                                                                                                                                                        ",
"                                                                                                                                                                                                        ",
"                                                                                                                                                                                                        ",
"                      .+@                                                                           #$$$%                                                                                               ",
"                      &*=       -;;-                              >,,'      ',,>      %),,!       ~){]]]^>!       ',,>      %),,!      !,,)%                            ;;                              ",
"                      &*/.      +**+                             ~]])       (]_!      :]]<       ']]]]]]]]{$       )]]~      ']]>       <]]:                            **[                             ",
"                      &**}      +**+                             )]]~      ']]>       {]{#      !_]]<$$$|]]{       ~]])       (]_!      #{]{                            **1@                            ",
"                      &***@     +**+                             (]{       2]]'      %]])       3]]4555556]]7       {](       <]]8       )]]%                           ***9                            ",
"                      &***=     +**+                            $]]3       ,]]       7]]7       {](055555%]])       3]]$      $]]3       7]]7                           ***/                            ",
"                      &***/.    +**+                            $]]3       ,]]       7]]7       ]],5555555]],       3]]$      $]]3       7]]7                           ****[                           ",
"                      &****}    +**+                            $]]3       ,]]       7]]7       ]],5555555]],       3]]$      $]]3       7]]7                           ****1@                          ",
"                      &*aa**@   +**+                            !_]|       )]]%      ']]2       b]{#55555~]]6       |]_!      8]]<       2]]'                           *****9                          ",
"                      &*;c**=   +**+                             ,]]       7]]7       ]],       :]]|5555%,]]~       ]],       3]]$       ,]]                            **d**/                          ",
"                      &*;-**/.  +**+               $$$           6]]2      !]](       b]]8      %,]]{333]]]|       2]]6      %]]^%      8]]b                            **ef**[                         ",
"                      &*; d**}  +**+              $]]]           %]]^%      |]]4      8]]b       %(]]]]]]]|       %^]]%      6]]2       b]]8                            **eg**1@                        ",
"                      &*; -a**@ +**+              $]]]            ~77~      %777       '77!        '>,,,6~        ~77~      %777       !77'                             **e h**9                        ",
"                      &*;  c**= +**+    ~77~      $]]]                                                                                                                  **e i**/                        ",
"                      &*;  -**/.+**+  :{]]]]{:  ]]]]]]]]]],       .j&&k***************************************************************************************************e  f**[   +***************a;=e",
"                      &*;   d**}+**+ 2]]]]]]]]2 ]]]]]]]]]],     gf/*******************************************************************************************************e  g**1@  +************k&i-   ",
"                      &*;   -a**i**+#{]]6%%6]]{#  $]]]         d****************ceeee1************************************************************************************e   h**9  +*******a;=e        ",
"                      &*;    c**h**+4]](5555(]]4  $]]]        }****k&i++++++++++@>,,'-++++++++++++++++++++++++++++++++++++++++++++++++++++++++++++++++++++++++++++++++++++@   i**/  +**j++++-           ",
"                      &*;    -*****+3]]|$$$$|]]3  $]]]        ***/-              ,]]7                                                                                          f**[ +**+                ",
"                      &*;     d****+3]]]]]]]]]]3  $]]]        ***&               ,]]7                                                                                          g**1@+**+                ",
"                      &*;     -a***+3]]b7777777~  $]]]     %~ /**k@           333{]]b3333#  333# %:{]3  #<(]](<#    #43{](38%  233:b](<# <]]38    #<(]](<#   233~  4(],         h**9+**+                ",
"                      &*;      c***+:]]b          $]]]    %,~ +/**1ce@        ]]]]]]]]]]]$  ]]]$%,]]]3 !{]]]]]]{!  !{]]]]]]],% ,]]]]]]]{|]]]]]2  !{]]]]]]{!  ,]]7 |]]],         i**/+**+                ",
"                      &*;      -***+!_]]4  4]]_!  $]]]%  $(|    efk****d&i-   777^]]>7777%  ]]]8(],,,2 (]]^22^]](  (]]^276{]]| ,]]_22_]]]|7,]]{# (]]^22^]](  ,]]:|](,,>          f**d**+                ",
"                      &*;       d**+ >]]]((]]]>    (]]^,(]|        +9&k***ac-    ,]]7       ]]]{b8    $]]]%55%]]]$#333~555:]]] ,]]>  >]]{# ~]]]$$]]]%55%]]]$ ,]]{(4              g*****+                ",
"                      &*;       -a*+  >_]]]]_>     !{]]]]|             -[1**/+   ,]]7       ]]]|      3]]355553]]3550$:3384]]] ,]]7  7]],   ]]]$3]]355553]]3 ,]],%                h****+                ",
"                      .+-        -+    !:33:!       #433$                @***h   ,]]7       ]]]$      3]]{,,,,{]]35!(]]]]]]]]] ,]]7  7]],   ]]]$3]]{,,,,{]]3 ,]]7                 i****+                ",
"                                                                         @****   ,]]7     % ]]]$      3]]{,,,,,,,20(]]](77<]]] ,]]7  7]],   ]]]$3]]{,,,,,,,2 ,]]7                  f***+                ",
"                                                                        e;****   ,]]7    !) ]]]$      3]]355555555$]]]4055$]]] ,]]7  7]],   ]]]$3]]3         ,]]7                  g***+                ",
"           +9&&&&&&&&&&&&&&&&&&&&&&&&&&&&&&&&&&&&&&&&&&&&&&&&&&&&&&&&&*******}   ,]]7   ${' ]]]$      $]]]%55%333#$]]]555%<]]] ,]]7  7]],   ]]]$$]]]%  %333# ,]]7                   h**+                ",
"       -efk*****************************************************************d    >]],77){<  ]]]$       (]]^22^]]( #{]]67>^]]]] ,]]7  7]],   ]]]$ (]]^22^]](  ,]]7                   i**+                ",
"   +9&*******************************************************************/;[     !{]]]]]2   ]]]$       !{]]]]]]{!  2]]]]]]|]]] ,]]7  7]],   ]]]$ !{]]]]]]{!  ,]]7                    c;-                ",
" l9&&&&&&&&&&&&&&&&&&&&&&&&&&&&&&&&&&&&&&&&&&&&&&&&&&&&&&&&&&&&&&&&&&&&9+.        $b]]{:    333#        #<(]](<#    83]]38#333 233~  ~332   333#  #<(]](<#   233~                                       ",
"                                                                                                                                                                                                        ",
"                                                                                                                                                                                                        ",
"                                                                                                                                                                                                        ",
"                      gel-eel   @ee@                             '77!      !77'       777%      %777'   7777       !77'       777%      %777                            ee-lee-                         "};
