#define XxLcdAlphaDigitE_width 23
#define XxLcdAlphaDigitE_height 29
static unsigned char XxLcdAlphaDigitE_bits[] = {
 0xc0,0xb6,0x0d,0xc0,0xb6,0x0d,0x00,0x00,0x00,0xc0,0x00,0x00,0x60,0x00,0x00,
 0x00,0x00,0x00,0x60,0x00,0x00,0x60,0x00,0x00,0x00,0x00,0x00,0x60,0xdb,0x00,
 0xb0,0x6d,0x00,0x00,0x00,0x00,0x30,0x00,0x00,0x30,0x00,0x00,0x00,0x00,0x00,
 0x30,0x00,0x00,0x18,0x00,0x00,0x00,0x00,0x00,0xd8,0xb6,0x01,0xd8,0xb6,0x01,
 0x00,0x00,0x00,0x00,0x00,0x00,0x00,0x00,0x00,0x00,0x00,0x00,0x00,0x00,0x00,
 0x00,0x00,0x00,0x00,0x00,0x00,0x00,0x00,0x00,0x00,0x00,0x00};
