#define XxLcdAlphaDigitW_width 23
#define XxLcdAlphaDigitW_height 29
static char XxLcdAlphaDigitW_bits[] = {
 0xc0,0x00,0x0c,0xc0,0x00,0x0c,0x00,0x00,0x00,0xc0,0x00,0x0c,0x60,0x00,0x06,
 0x00,0x00,0x00,0x60,0x00,0x06,0x60,0x00,0x06,0x00,0x00,0x00,0x60,0x18,0x06,
 0x30,0x0c,0x03,0x00,0x00,0x00,0x30,0x0c,0x03,0x30,0x0c,0x03,0x00,0x00,0x00,
 0xb0,0x61,0x03,0xd8,0xb0,0x01,0x00,0x00,0x00,0x18,0x80,0x01,0x18,0x80,0x01,
 0x00,0x00,0x00,0x00,0x00,0x00,0x00,0x00,0x00,0x00,0x00,0x00,0x00,0x00,0x00,
 0x00,0x00,0x00,0x00,0x00,0x00,0x00,0x00,0x00,0x00,0x00,0x00};
