#define XxLcdAlphaDigitr_width 23
#define XxLcdAlphaDigitr_height 29
static unsigned char XxLcdAlphaDigitr_bits[] = {
 0x00,0x00,0x00,0x00,0x00,0x00,0x00,0x00,0x00,0x00,0x00,0x00,0x00,0x00,0x00,
 0x00,0x00,0x00,0x60,0xd8,0x00,0x60,0xd8,0x00,0x00,0x00,0x00,0x60,0x03,0x06,
 0xb0,0x01,0x03,0x00,0x00,0x00,0x30,0x00,0x00,0x30,0x00,0x00,0x00,0x00,0x00,
 0x30,0x00,0x00,0x18,0x00,0x00,0x00,0x00,0x00,0x18,0x00,0x00,0x18,0x00,0x00,
 0x00,0x00,0x00,0x00,0x00,0x00,0x00,0x00,0x00,0x00,0x00,0x00,0x00,0x00,0x00,
 0x00,0x00,0x00,0x00,0x00,0x00,0x00,0x00,0x00,0x00,0x00,0x00};
