#define XxLcdAlphaDigitd_width 23
#define XxLcdAlphaDigitd_height 29
static char XxLcdAlphaDigitd_bits[] = {
 0x00,0x00,0x0c,0x00,0x00,0x0c,0x00,0x00,0x00,0x00,0x00,0x0c,0x00,0x00,0x06,
 0x00,0x00,0x00,0x00,0xdb,0x06,0x00,0xdb,0x06,0x00,0x00,0x00,0x60,0x00,0x06,
 0x30,0x00,0x03,0x00,0x00,0x00,0x30,0x00,0x03,0x30,0x00,0x03,0x00,0x00,0x00,
 0x30,0x00,0x03,0x18,0x80,0x01,0x00,0x00,0x00,0xc0,0xb6,0x01,0xc0,0xb6,0x01,
 0x00,0x00,0x00,0x00,0x00,0x00,0x00,0x00,0x00,0x00,0x00,0x00,0x00,0x00,0x00,
 0x00,0x00,0x00,0x00,0x00,0x00,0x00,0x00,0x00,0x00,0x00,0x00};
