#define XxLcdAlphaDigitt_width 23
#define XxLcdAlphaDigitt_height 29
static char XxLcdAlphaDigitt_bits[] = {
 0x00,0x06,0x00,0x00,0x06,0x00,0x00,0x00,0x00,0x00,0x06,0x00,0x00,0x03,0x00,
 0x00,0x00,0x00,0x60,0xdb,0x00,0x60,0xdb,0x00,0x00,0x00,0x00,0x00,0x03,0x00,
 0x80,0x01,0x00,0x00,0x00,0x00,0x80,0x01,0x00,0x80,0x01,0x00,0x00,0x00,0x00,
 0x80,0x01,0x03,0xc0,0x80,0x01,0x00,0x00,0x00,0x00,0x36,0x00,0x00,0x36,0x00,
 0x00,0x00,0x00,0x00,0x00,0x00,0x00,0x00,0x00,0x00,0x00,0x00,0x00,0x00,0x00,
 0x00,0x00,0x00,0x00,0x00,0x00,0x00,0x00,0x00,0x00,0x00,0x00};
