#define XxLcdAlphaDigitA_width 23
#define XxLcdAlphaDigitA_height 29
static char XxLcdAlphaDigitA_bits[] = {
 0x00,0x30,0x00,0x00,0x30,0x00,0x00,0x00,0x00,0x00,0x86,0x01,0x00,0xc3,0x00,
 0x00,0x00,0x00,0x60,0x00,0x06,0x60,0x00,0x06,0x00,0x00,0x00,0x60,0xdb,0x06,
 0xb0,0x6d,0x03,0x00,0x00,0x00,0x30,0x00,0x03,0x30,0x00,0x03,0x00,0x00,0x00,
 0x30,0x00,0x03,0x18,0x80,0x01,0x00,0x00,0x00,0x18,0x80,0x01,0x18,0x80,0x01,
 0x00,0x00,0x00,0x00,0x00,0x00,0x00,0x00,0x00,0x00,0x00,0x00,0x00,0x00,0x00,
 0x00,0x00,0x00,0x00,0x00,0x00,0x00,0x00,0x00,0x00,0x00,0x00};
