#define XxLcdAlphaDigitK_width 23
#define XxLcdAlphaDigitK_height 29
static char XxLcdAlphaDigitK_bits[] = {
 0xc0,0x00,0x0c,0xc0,0x00,0x0c,0x00,0x00,0x00,0xc0,0x80,0x01,0x60,0xc0,0x00,
 0x00,0x00,0x00,0x60,0x18,0x00,0x60,0x18,0x00,0x00,0x00,0x00,0x60,0x03,0x00,
 0xb0,0x01,0x00,0x00,0x00,0x00,0x30,0x0c,0x00,0x30,0x0c,0x00,0x00,0x00,0x00,
 0x30,0x60,0x00,0x18,0x30,0x00,0x00,0x00,0x00,0x18,0x80,0x01,0x18,0x80,0x01,
 0x00,0x00,0x00,0x00,0x00,0x00,0x00,0x00,0x00,0x00,0x00,0x00,0x00,0x00,0x00,
 0x00,0x00,0x00,0x00,0x00,0x00,0x00,0x00,0x00,0x00,0x00,0x00};
