#define XxLcdAlphaDigitg_width 23
#define XxLcdAlphaDigitg_height 29
static char XxLcdAlphaDigitg_bits[] = {
 0x00,0x00,0x00,0x00,0x00,0x00,0x00,0x00,0x00,0x00,0x00,0x00,0x00,0x00,0x00,
 0x00,0x00,0x00,0x00,0xdb,0x06,0x00,0xdb,0x06,0x00,0x00,0x00,0x60,0x00,0x06,
 0x30,0x00,0x03,0x00,0x00,0x00,0x30,0x00,0x03,0x30,0x00,0x03,0x00,0x00,0x00,
 0x30,0x00,0x03,0x18,0x80,0x01,0x00,0x00,0x00,0xc0,0xa6,0x01,0xc0,0xb6,0x01,
 0x00,0x00,0x00,0x00,0x80,0x01,0x00,0xc0,0x00,0x00,0x00,0x00,0x6c,0x1b,0x00,
 0x6c,0x1b,0x00,0x00,0x00,0x00,0x00,0x00,0x00,0x00,0x00,0x00};
