#define XxLcdAlphaDigitj_width 23
#define XxLcdAlphaDigitj_height 29
static unsigned char XxLcdAlphaDigitj_bits[] = {
 0x00,0x00,0x0c,0x00,0x00,0x0c,0x00,0x00,0x00,0x00,0x00,0x00,0x00,0x00,0x00,
 0x00,0x00,0x00,0x00,0xd8,0x06,0x00,0xd8,0x06,0x00,0x00,0x00,0x00,0x00,0x06,
 0x00,0x00,0x03,0x00,0x00,0x00,0x00,0x00,0x03,0x00,0x00,0x03,0x00,0x00,0x00,
 0x00,0x00,0x03,0x00,0x80,0x01,0x00,0x00,0x00,0x18,0x80,0x01,0x18,0x80,0x01,
 0x00,0x00,0x00,0x18,0x80,0x01,0x0c,0xc0,0x00,0x00,0x00,0x00,0x60,0x1b,0x00,
 0x60,0x1b,0x00,0x00,0x00,0x00,0x00,0x00,0x00,0x00,0x00,0x00};
