#define XxLcdAlphaDigite_width 23
#define XxLcdAlphaDigite_height 29
static unsigned char XxLcdAlphaDigite_bits[] = {
 0x00,0x00,0x00,0x00,0x00,0x00,0x00,0x00,0x00,0x00,0x00,0x00,0x00,0x00,0x00,
 0x00,0x00,0x00,0x00,0xdb,0x00,0x00,0xdb,0x00,0x00,0x00,0x00,0x60,0x00,0x06,
 0x30,0x00,0x03,0x00,0x00,0x00,0xb0,0x6d,0x03,0xb0,0x6d,0x03,0x00,0x00,0x00,
 0x30,0x00,0x00,0x18,0x00,0x00,0x00,0x00,0x00,0xc0,0x36,0x00,0xc0,0x36,0x00,
 0x00,0x00,0x00,0x00,0x00,0x00,0x00,0x00,0x00,0x00,0x00,0x00,0x00,0x00,0x00,
 0x00,0x00,0x00,0x00,0x00,0x00,0x00,0x00,0x00,0x00,0x00,0x00};
