#define XxLcdAlphaDigit1_width 23
#define XxLcdAlphaDigit1_height 29
static unsigned char XxLcdAlphaDigit1_bits[] = {
 0x00,0x30,0x00,0x00,0x30,0x00,0x00,0x00,0x00,0x00,0x36,0x00,0x00,0x1b,0x00,
 0x00,0x00,0x00,0x60,0x18,0x00,0x60,0x18,0x00,0x00,0x00,0x00,0x00,0x18,0x00,
 0x00,0x0c,0x00,0x00,0x00,0x00,0x00,0x0c,0x00,0x00,0x0c,0x00,0x00,0x00,0x00,
 0x00,0x0c,0x00,0x00,0x06,0x00,0x00,0x00,0x00,0xd8,0xb6,0x01,0xd8,0xb6,0x01,
 0x00,0x00,0x00,0x00,0x00,0x00,0x00,0x00,0x00,0x00,0x00,0x00,0x00,0x00,0x00,
 0x00,0x00,0x00,0x00,0x00,0x00,0x00,0x00,0x00,0x00,0x00,0x00};
