#define XxLcdAlphaDigit9_width 23
#define XxLcdAlphaDigit9_height 29
static char XxLcdAlphaDigit9_bits[] = {
 0x00,0xb6,0x01,0x00,0xb6,0x01,0x00,0x00,0x00,0xc0,0x00,0x0c,0x60,0x00,0x06,
 0x00,0x00,0x00,0x60,0x00,0x06,0x60,0x00,0x06,0x00,0x00,0x00,0x00,0xdb,0x06,
 0x80,0x6d,0x03,0x00,0x00,0x00,0x00,0x00,0x03,0x00,0x00,0x03,0x00,0x00,0x00,
 0x30,0x00,0x03,0x18,0x80,0x01,0x00,0x00,0x00,0xc0,0x36,0x00,0xc0,0x36,0x00,
 0x00,0x00,0x00,0x00,0x00,0x00,0x00,0x00,0x00,0x00,0x00,0x00,0x00,0x00,0x00,
 0x00,0x00,0x00,0x00,0x00,0x00,0x00,0x00,0x00,0x00,0x00,0x00};
