#define XxLcdAlphaDigitY_width 23
#define XxLcdAlphaDigitY_height 29
static unsigned char XxLcdAlphaDigitY_bits[] = {
 0xc0,0x00,0x0c,0xc0,0x00,0x0c,0x00,0x00,0x00,0xc0,0x00,0x0c,0x60,0x00,0x06,
 0x00,0x00,0x00,0x60,0x00,0x06,0x60,0x00,0x06,0x00,0x00,0x00,0x00,0xdb,0x00,
 0x80,0x6d,0x00,0x00,0x00,0x00,0x00,0x0c,0x00,0x00,0x0c,0x00,0x00,0x00,0x00,
 0x00,0x0c,0x00,0x00,0x06,0x00,0x00,0x00,0x00,0x00,0x06,0x00,0x00,0x06,0x00,
 0x00,0x00,0x00,0x00,0x00,0x00,0x00,0x00,0x00,0x00,0x00,0x00,0x00,0x00,0x00,
 0x00,0x00,0x00,0x00,0x00,0x00,0x00,0x00,0x00,0x00,0x00,0x00};
