#define XxLcdAlphaDigitM_width 23
#define XxLcdAlphaDigitM_height 29
static unsigned char XxLcdAlphaDigitM_bits[] = {
 0xc0,0x00,0x0c,0xc0,0x00,0x0c,0x00,0x00,0x00,0xc0,0x86,0x0d,0x60,0xc3,0x06,
 0x00,0x00,0x00,0x60,0x18,0x06,0x60,0x18,0x06,0x00,0x00,0x00,0x60,0x18,0x06,
 0x30,0x0c,0x03,0x00,0x00,0x00,0x30,0x00,0x03,0x30,0x00,0x03,0x00,0x00,0x00,
 0x30,0x00,0x03,0x18,0x80,0x01,0x00,0x00,0x00,0x18,0x80,0x01,0x18,0x80,0x01,
 0x00,0x00,0x00,0x00,0x00,0x00,0x00,0x00,0x00,0x00,0x00,0x00,0x00,0x00,0x00,
 0x00,0x00,0x00,0x00,0x00,0x00,0x00,0x00,0x00,0x00,0x00,0x00};
