#define XxLcdAlphaDigitf_width 23
#define XxLcdAlphaDigitf_height 29
static char XxLcdAlphaDigitf_bits[] = {
 0x00,0xb0,0x0d,0x00,0xb0,0x0d,0x00,0x00,0x00,0x00,0x06,0x00,0x00,0x03,0x00,
 0x00,0x00,0x00,0x00,0x03,0x00,0x00,0x03,0x00,0x00,0x00,0x00,0x60,0xdb,0x06,
 0xb0,0x6d,0x03,0x00,0x00,0x00,0x80,0x01,0x00,0x80,0x01,0x00,0x00,0x00,0x00,
 0x80,0x01,0x00,0xc0,0x00,0x00,0x00,0x00,0x00,0xc0,0x00,0x00,0xc0,0x00,0x00,
 0x00,0x00,0x00,0x00,0x00,0x00,0x00,0x00,0x00,0x00,0x00,0x00,0x00,0x00,0x00,
 0x00,0x00,0x00,0x00,0x00,0x00,0x00,0x00,0x00,0x00,0x00,0x00};
