#define XxLcdAlphaDigitQ_width 23
#define XxLcdAlphaDigitQ_height 29
static char XxLcdAlphaDigitQ_bits[] = {
 0x00,0xb6,0x01,0x00,0xb6,0x01,0x00,0x00,0x00,0xc0,0x00,0x0c,0x60,0x00,0x06,
 0x00,0x00,0x00,0x60,0x00,0x06,0x60,0x00,0x06,0x00,0x00,0x00,0x60,0x00,0x06,
 0x30,0x00,0x03,0x00,0x00,0x00,0x30,0x0c,0x03,0x30,0x0c,0x03,0x00,0x00,0x00,
 0x30,0x60,0x00,0x18,0x30,0x00,0x00,0x00,0x00,0xc0,0x86,0x01,0xc0,0x86,0x01,
 0x00,0x00,0x00,0x00,0x00,0x00,0x00,0x00,0x00,0x00,0x00,0x00,0x00,0x00,0x00,
 0x00,0x00,0x00,0x00,0x00,0x00,0x00,0x00,0x00,0x00,0x00,0x00};
