#define XxLcdNumDigit4_width 18
#define XxLcdNumDigit4_height 21
static unsigned char XxLcdNumDigit4_bits[] = {
 0x00,0x00,0x00,0x00,0x00,0x00,0x60,0x00,0x03,0x70,0x80,0x01,0x70,0xc0,0x01,
 0x70,0xc0,0x01,0x30,0xc0,0x00,0x38,0xe0,0x00,0x18,0xe0,0x00,0xc8,0xcf,0x00,
 0xf0,0x3f,0x00,0xc0,0x4f,0x00,0x00,0x60,0x00,0x00,0x70,0x00,0x00,0x30,0x00,
 0x00,0x38,0x00,0x00,0x38,0x00,0x00,0x38,0x00,0x00,0x18,0x00,0x00,0x00,0x00,
 0x00,0x00,0x00};
