#define XxLcdAlphaDigitX_width 23
#define XxLcdAlphaDigitX_height 29
static char XxLcdAlphaDigitX_bits[] = {
 0xc0,0x00,0x0c,0xc0,0x00,0x0c,0x00,0x00,0x00,0xc0,0x00,0x0c,0x60,0x00,0x06,
 0x00,0x00,0x00,0x00,0xc3,0x00,0x00,0xc3,0x00,0x00,0x00,0x00,0x00,0x18,0x00,
 0x00,0x0c,0x00,0x00,0x00,0x00,0x80,0x61,0x00,0x80,0x61,0x00,0x00,0x00,0x00,
 0x30,0x00,0x03,0x18,0x80,0x01,0x00,0x00,0x00,0x18,0x80,0x01,0x18,0x80,0x01,
 0x00,0x00,0x00,0x00,0x00,0x00,0x00,0x00,0x00,0x00,0x00,0x00,0x00,0x00,0x00,
 0x00,0x00,0x00,0x00,0x00,0x00,0x00,0x00,0x00,0x00,0x00,0x00};
