#define XxLcdAlphaDigit0x28_width 23
#define XxLcdAlphaDigit0x28_height 29
static char XxLcdAlphaDigit0x28_bits[] = {
 0x00,0x80,0x01,0x00,0x80,0x01,0x00,0x00,0x00,0x00,0x30,0x00,0x00,0x18,0x00,
 0x00,0x00,0x00,0x00,0x03,0x00,0x00,0x03,0x00,0x00,0x00,0x00,0x00,0x03,0x00,
 0x80,0x01,0x00,0x00,0x00,0x00,0x80,0x01,0x00,0x80,0x01,0x00,0x00,0x00,0x00,
 0x00,0x0c,0x00,0x00,0x06,0x00,0x00,0x00,0x00,0x00,0x30,0x00,0x00,0x30,0x00,
 0x00,0x00,0x00,0x00,0x00,0x00,0x00,0x00,0x00,0x00,0x00,0x00,0x00,0x00,0x00,
 0x00,0x00,0x00,0x00,0x00,0x00,0x00,0x00,0x00,0x00,0x00,0x00};
