#define XxLcdAlphaDigit4_width 23
#define XxLcdAlphaDigit4_height 29
static char XxLcdAlphaDigit4_bits[] = {
 0x00,0x80,0x01,0x00,0x80,0x01,0x00,0x00,0x00,0x00,0xb0,0x01,0x00,0xd8,0x00,
 0x00,0x00,0x00,0x00,0xc3,0x00,0x00,0xc3,0x00,0x00,0x00,0x00,0x60,0xc0,0x00,
 0x30,0x60,0x00,0x00,0x00,0x00,0xb0,0x6d,0x03,0xb0,0x6d,0x03,0x00,0x00,0x00,
 0x00,0x60,0x00,0x00,0x30,0x00,0x00,0x00,0x00,0x00,0x30,0x00,0x00,0x30,0x00,
 0x00,0x00,0x00,0x00,0x00,0x00,0x00,0x00,0x00,0x00,0x00,0x00,0x00,0x00,0x00,
 0x00,0x00,0x00,0x00,0x00,0x00,0x00,0x00,0x00,0x00,0x00,0x00};
