#define XxLcdAlphaDigitw_width 23
#define XxLcdAlphaDigitw_height 29
static char XxLcdAlphaDigitw_bits[] = {
 0x00,0x00,0x00,0x00,0x00,0x00,0x00,0x00,0x00,0x00,0x00,0x00,0x00,0x00,0x00,
 0x00,0x00,0x00,0x60,0x00,0x06,0x60,0x00,0x06,0x00,0x00,0x00,0x60,0x00,0x06,
 0x30,0x00,0x03,0x00,0x00,0x00,0x30,0x0c,0x03,0x30,0x0c,0x03,0x00,0x00,0x00,
 0x30,0x0c,0x03,0x18,0x86,0x01,0x00,0x00,0x00,0xc0,0x30,0x00,0xc0,0x30,0x00,
 0x00,0x00,0x00,0x00,0x00,0x00,0x00,0x00,0x00,0x00,0x00,0x00,0x00,0x00,0x00,
 0x00,0x00,0x00,0x00,0x00,0x00,0x00,0x00,0x00,0x00,0x00,0x00};
