#define XxLcdAlphaDigits_width 23
#define XxLcdAlphaDigits_height 29
static unsigned char XxLcdAlphaDigits_bits[] = {
 0x00,0x00,0x00,0x00,0x00,0x00,0x00,0x00,0x00,0x00,0x00,0x00,0x00,0x00,0x00,
 0x00,0x00,0x00,0x00,0xdb,0x06,0x00,0xdb,0x06,0x00,0x00,0x00,0x60,0x00,0x00,
 0x30,0x00,0x00,0x00,0x00,0x00,0x80,0x6d,0x00,0x80,0x6d,0x00,0x00,0x00,0x00,
 0x00,0x00,0x03,0x00,0x80,0x01,0x00,0x00,0x00,0xd8,0x36,0x00,0xd8,0x36,0x00,
 0x00,0x00,0x00,0x00,0x00,0x00,0x00,0x00,0x00,0x00,0x00,0x00,0x00,0x00,0x00,
 0x00,0x00,0x00,0x00,0x00,0x00,0x00,0x00,0x00,0x00,0x00,0x00};
