#define XxLcdNumDigit1_width 18
#define XxLcdNumDigit1_height 21
static unsigned char XxLcdNumDigit1_bits[] = {
 0x00,0x00,0x00,0x00,0x00,0x00,0x00,0x00,0x03,0x00,0x80,0x01,0x00,0xc0,0x01,
 0x00,0xc0,0x01,0x00,0xc0,0x00,0x00,0xe0,0x00,0x00,0xe0,0x00,0x00,0xc0,0x00,
 0x00,0x00,0x00,0x00,0x40,0x00,0x00,0x60,0x00,0x00,0x70,0x00,0x00,0x30,0x00,
 0x00,0x38,0x00,0x00,0x38,0x00,0x00,0x38,0x00,0x00,0x18,0x00,0x00,0x00,0x00,
 0x00,0x00,0x00};
