#define XxLcdAlphaDigitp_width 23
#define XxLcdAlphaDigitp_height 29
static char XxLcdAlphaDigitp_bits[] = {
 0x00,0x00,0x00,0x00,0x00,0x00,0x00,0x00,0x00,0x00,0x00,0x00,0x00,0x00,0x00,
 0x00,0x00,0x00,0x60,0xdb,0x00,0x60,0xdb,0x00,0x00,0x00,0x00,0x60,0x00,0x06,
 0x30,0x00,0x03,0x00,0x00,0x00,0x30,0x00,0x03,0x30,0x00,0x03,0x00,0x00,0x00,
 0x30,0x00,0x03,0x18,0x80,0x01,0x00,0x00,0x00,0xd8,0x36,0x00,0xd8,0x36,0x00,
 0x00,0x00,0x00,0x18,0x00,0x00,0x0c,0x00,0x00,0x00,0x00,0x00,0x0c,0x00,0x00,
 0x0c,0x00,0x00,0x00,0x00,0x00,0x00,0x00,0x00,0x00,0x00,0x00};
