#define XxLcdNumDigit0_width 18
#define XxLcdNumDigit0_height 21
static char XxLcdNumDigit0_bits[] = {
 0x80,0xff,0x00,0x80,0xff,0x00,0x60,0x7f,0x03,0x70,0x80,0x01,0x70,0xc0,0x01,
 0x70,0xc0,0x01,0x30,0xc0,0x00,0x38,0xe0,0x00,0x18,0xe0,0x00,0x08,0xc0,0x00,
 0x00,0x00,0x00,0x0c,0x40,0x00,0x1c,0x60,0x00,0x1c,0x70,0x00,0x0c,0x30,0x00,
 0x0e,0x38,0x00,0x0e,0x38,0x00,0x06,0x38,0x00,0xfb,0x1b,0x00,0xfc,0x07,0x00,
 0xfc,0x07,0x00};
