#define XxLcdAlphaDigitBack_width 23
#define XxLcdAlphaDigitBack_height 29
static char XxLcdAlphaDigitBack_bits[] = {
 0xc0,0xb6,0x6d,0xc0,0xb6,0x6d,0x00,0x00,0x00,0xc0,0xb6,0x6d,0x60,0xdb,0x36,
 0x00,0x00,0x00,0x60,0xdb,0x36,0x60,0xdb,0x36,0x00,0x00,0x00,0x60,0xdb,0x36,
 0xb0,0x6d,0x1b,0x00,0x00,0x00,0xb0,0x6d,0x1b,0xb0,0x6d,0x1b,0x00,0x00,0x00,
 0xb0,0x6d,0x1b,0xd8,0xb6,0x0d,0x00,0x00,0x00,0xd8,0xb6,0x0d,0xd8,0xb6,0x0d,
 0x00,0x00,0x00,0xd8,0xb6,0x0d,0x6c,0xdb,0x06,0x00,0x00,0x00,0x6c,0xdb,0x06,
 0x6c,0xdb,0x06,0x00,0x00,0x00,0x6c,0xdb,0x06,0xb6,0x6d,0x03};
