#define XxLcdNumDigit6_width 18
#define XxLcdNumDigit6_height 21
static unsigned char XxLcdNumDigit6_bits[] = {
 0x80,0xff,0x00,0x80,0xff,0x00,0x60,0x7f,0x00,0x70,0x00,0x00,0x70,0x00,0x00,
 0x70,0x00,0x00,0x30,0x00,0x00,0x38,0x00,0x00,0x18,0x00,0x00,0xc8,0x0f,0x00,
 0xf0,0x3f,0x00,0xcc,0x4f,0x00,0x1c,0x60,0x00,0x1c,0x70,0x00,0x0c,0x30,0x00,
 0x0e,0x38,0x00,0x0e,0x38,0x00,0x06,0x38,0x00,0xfb,0x1b,0x00,0xfc,0x07,0x00,
 0xfc,0x07,0x00};
