#define XxLcdNumDigit2_width 18
#define XxLcdNumDigit2_height 21
static char XxLcdNumDigit2_bits[] = {
 0x80,0xff,0x00,0x80,0xff,0x00,0x00,0x7f,0x03,0x00,0x80,0x01,0x00,0xc0,0x01,
 0x00,0xc0,0x01,0x00,0xc0,0x00,0x00,0xe0,0x00,0x00,0xe0,0x00,0xc0,0xcf,0x00,
 0xf0,0x3f,0x00,0xcc,0x0f,0x00,0x1c,0x00,0x00,0x1c,0x00,0x00,0x0c,0x00,0x00,
 0x0e,0x00,0x00,0x0e,0x00,0x00,0x06,0x00,0x00,0xfb,0x03,0x00,0xfc,0x07,0x00,
 0xfc,0x07,0x00};
