#define XxLcdAlphaDigitB_width 23
#define XxLcdAlphaDigitB_height 29
static unsigned char XxLcdAlphaDigitB_bits[] = {
 0xc0,0xb6,0x01,0xc0,0xb6,0x01,0x00,0x00,0x00,0xc0,0x00,0x0c,0x60,0x00,0x06,
 0x00,0x00,0x00,0x60,0x00,0x06,0x60,0x00,0x06,0x00,0x00,0x00,0x60,0xdb,0x00,
 0xb0,0x6d,0x00,0x00,0x00,0x00,0x30,0x00,0x03,0x30,0x00,0x03,0x00,0x00,0x00,
 0x30,0x00,0x03,0x18,0x80,0x01,0x00,0x00,0x00,0xd8,0x36,0x00,0xd8,0x36,0x00,
 0x00,0x00,0x00,0x00,0x00,0x00,0x00,0x00,0x00,0x00,0x00,0x00,0x00,0x00,0x00,
 0x00,0x00,0x00,0x00,0x00,0x00,0x00,0x00,0x00,0x00,0x00,0x00};
