#define XxLcdAlphaDigitk_width 23
#define XxLcdAlphaDigitk_height 29
static unsigned char XxLcdAlphaDigitk_bits[] = {
 0xc0,0x00,0x00,0xc0,0x00,0x00,0x00,0x00,0x00,0xc0,0x00,0x00,0x60,0x00,0x00,
 0x00,0x00,0x00,0x60,0x00,0x06,0x60,0x00,0x06,0x00,0x00,0x00,0x60,0xc0,0x00,
 0x30,0x60,0x00,0x00,0x00,0x00,0xb0,0x0d,0x00,0xb0,0x0d,0x00,0x00,0x00,0x00,
 0x30,0x60,0x00,0x18,0x30,0x00,0x00,0x00,0x00,0x18,0x80,0x01,0x18,0x80,0x01,
 0x00,0x00,0x00,0x00,0x00,0x00,0x00,0x00,0x00,0x00,0x00,0x00,0x00,0x00,0x00,
 0x00,0x00,0x00,0x00,0x00,0x00,0x00,0x00,0x00,0x00,0x00,0x00};
