#define XxLcdAlphaDigit2_width 23
#define XxLcdAlphaDigit2_height 29
static unsigned char XxLcdAlphaDigit2_bits[] = {
 0x00,0xb6,0x01,0x00,0xb6,0x01,0x00,0x00,0x00,0xc0,0x00,0x0c,0x60,0x00,0x06,
 0x00,0x00,0x00,0x00,0x00,0x06,0x00,0x00,0x06,0x00,0x00,0x00,0x00,0xdb,0x00,
 0x80,0x6d,0x00,0x00,0x00,0x00,0x30,0x00,0x00,0x30,0x00,0x00,0x00,0x00,0x00,
 0x30,0x00,0x00,0x18,0x00,0x00,0x00,0x00,0x00,0xd8,0xb6,0x01,0xd8,0xb6,0x01,
 0x00,0x00,0x00,0x00,0x00,0x00,0x00,0x00,0x00,0x00,0x00,0x00,0x00,0x00,0x00,
 0x00,0x00,0x00,0x00,0x00,0x00,0x00,0x00,0x00,0x00,0x00,0x00};
