#define XxLcdAlphaDigitm_width 23
#define XxLcdAlphaDigitm_height 29
static unsigned char XxLcdAlphaDigitm_bits[] = {
 0x00,0x00,0x00,0x00,0x00,0x00,0x00,0x00,0x00,0x00,0x00,0x00,0x00,0x00,0x00,
 0x00,0x00,0x00,0x60,0xc3,0x00,0x60,0xc3,0x00,0x00,0x00,0x00,0x60,0x18,0x06,
 0x30,0x0c,0x03,0x00,0x00,0x00,0x30,0x0c,0x03,0x30,0x0c,0x03,0x00,0x00,0x00,
 0x30,0x0c,0x03,0x18,0x86,0x01,0x00,0x00,0x00,0x18,0x86,0x01,0x18,0x86,0x01,
 0x00,0x00,0x00,0x00,0x00,0x00,0x00,0x00,0x00,0x00,0x00,0x00,0x00,0x00,0x00,
 0x00,0x00,0x00,0x00,0x00,0x00,0x00,0x00,0x00,0x00,0x00,0x00};
