#define XxLcdAlphaDigitx_width 23
#define XxLcdAlphaDigitx_height 29
static unsigned char XxLcdAlphaDigitx_bits[] = {
 0x00,0x00,0x00,0x00,0x00,0x00,0x00,0x00,0x00,0x00,0x00,0x00,0x00,0x00,0x00,
 0x00,0x00,0x00,0x60,0x00,0x06,0x60,0x00,0x06,0x00,0x00,0x00,0x00,0xc3,0x00,
 0x80,0x61,0x00,0x00,0x00,0x00,0x00,0x0c,0x00,0x00,0x0c,0x00,0x00,0x00,0x00,
 0x80,0x61,0x00,0xc0,0x30,0x00,0x00,0x00,0x00,0x18,0x80,0x01,0x18,0x80,0x01,
 0x00,0x00,0x00,0x00,0x00,0x00,0x00,0x00,0x00,0x00,0x00,0x00,0x00,0x00,0x00,
 0x00,0x00,0x00,0x00,0x00,0x00,0x00,0x00,0x00,0x00,0x00,0x00};
