#define XxLcdAlphaDigitz_width 23
#define XxLcdAlphaDigitz_height 29
static char XxLcdAlphaDigitz_bits[] = {
 0x00,0x00,0x00,0x00,0x00,0x00,0x00,0x00,0x00,0x00,0x00,0x00,0x00,0x00,0x00,
 0x00,0x00,0x00,0x60,0xdb,0x06,0x60,0xdb,0x06,0x00,0x00,0x00,0x00,0xc0,0x00,
 0x00,0x60,0x00,0x00,0x00,0x00,0x00,0x0c,0x00,0x00,0x0c,0x00,0x00,0x00,0x00,
 0x80,0x01,0x00,0xc0,0x00,0x00,0x00,0x00,0x00,0xd8,0xb6,0x01,0xd8,0xb6,0x01,
 0x00,0x00,0x00,0x00,0x00,0x00,0x00,0x00,0x00,0x00,0x00,0x00,0x00,0x00,0x00,
 0x00,0x00,0x00,0x00,0x00,0x00,0x00,0x00,0x00,0x00,0x00,0x00};
