#define XxLcdAlphaDigitZ_width 23
#define XxLcdAlphaDigitZ_height 29
static char XxLcdAlphaDigitZ_bits[] = {
 0xc0,0xb6,0x0d,0xc0,0xb6,0x0d,0x00,0x00,0x00,0x00,0x00,0x0c,0x00,0x00,0x06,
 0x00,0x00,0x00,0x00,0xc0,0x00,0x00,0xc0,0x00,0x00,0x00,0x00,0x00,0x18,0x00,
 0x00,0x0c,0x00,0x00,0x00,0x00,0x80,0x01,0x00,0x80,0x01,0x00,0x00,0x00,0x00,
 0x30,0x00,0x00,0x18,0x00,0x00,0x00,0x00,0x00,0xd8,0xb6,0x01,0xd8,0xb6,0x01,
 0x00,0x00,0x00,0x00,0x00,0x00,0x00,0x00,0x00,0x00,0x00,0x00,0x00,0x00,0x00,
 0x00,0x00,0x00,0x00,0x00,0x00,0x00,0x00,0x00,0x00,0x00,0x00};
