#define XxLcdNumDigit3_width 18
#define XxLcdNumDigit3_height 21
static unsigned char XxLcdNumDigit3_bits[] = {
 0x80,0xff,0x00,0x80,0xff,0x00,0x00,0x7f,0x03,0x00,0x80,0x01,0x00,0xc0,0x01,
 0x00,0xc0,0x01,0x00,0xc0,0x00,0x00,0xe0,0x00,0x00,0xe0,0x00,0xc0,0xcf,0x00,
 0xf0,0x3f,0x00,0xc0,0x4f,0x00,0x00,0x60,0x00,0x00,0x70,0x00,0x00,0x30,0x00,
 0x00,0x38,0x00,0x00,0x38,0x00,0x00,0x38,0x00,0xf8,0x1b,0x00,0xfc,0x07,0x00,
 0xfc,0x07,0x00};
