#define XxLcdAlphaDigit3_width 23
#define XxLcdAlphaDigit3_height 29
static unsigned char XxLcdAlphaDigit3_bits[] = {
 0xc0,0xb6,0x0d,0xc0,0xb6,0x0d,0x00,0x00,0x00,0x00,0x80,0x01,0x00,0xc0,0x00,
 0x00,0x00,0x00,0x00,0x18,0x00,0x00,0x18,0x00,0x00,0x00,0x00,0x00,0xdb,0x00,
 0x80,0x6d,0x00,0x00,0x00,0x00,0x00,0x00,0x03,0x00,0x00,0x03,0x00,0x00,0x00,
 0x30,0x00,0x03,0x18,0x80,0x01,0x00,0x00,0x00,0xc0,0x36,0x00,0xc0,0x36,0x00,
 0x00,0x00,0x00,0x00,0x00,0x00,0x00,0x00,0x00,0x00,0x00,0x00,0x00,0x00,0x00,
 0x00,0x00,0x00,0x00,0x00,0x00,0x00,0x00,0x00,0x00,0x00,0x00};
