#define XxLcdAlphaDigitG_width 23
#define XxLcdAlphaDigitG_height 29
static char XxLcdAlphaDigitG_bits[] = {
 0x00,0xb6,0x01,0x00,0xb6,0x01,0x00,0x00,0x00,0xc0,0x00,0x0c,0x60,0x00,0x06,
 0x00,0x00,0x00,0x60,0x00,0x00,0x60,0x00,0x00,0x00,0x00,0x00,0x60,0xd8,0x06,
 0x30,0x6c,0x03,0x00,0x00,0x00,0x30,0x00,0x03,0x30,0x00,0x03,0x00,0x00,0x00,
 0x30,0x60,0x03,0x18,0xb0,0x01,0x00,0x00,0x00,0xc0,0x86,0x01,0xc0,0x86,0x01,
 0x00,0x00,0x00,0x00,0x00,0x00,0x00,0x00,0x00,0x00,0x00,0x00,0x00,0x00,0x00,
 0x00,0x00,0x00,0x00,0x00,0x00,0x00,0x00,0x00,0x00,0x00,0x00};
